<svg xmlns="http://www.w3.org/2000/svg" width="320" height="320" viewBox="0 0 320 320" role="img" aria-labelledby="title desc">
  <title id="title">Rocket takeoff illustration</title>
  <desc id="desc">A simple decorative rocket and smoke plume.</desc>
  <defs>
    <linearGradient id="body" x1="0" y1="0" x2="1" y2="1">
      <stop offset="0" stop-color="#ffe7bf"/>
      <stop offset="1" stop-color="#f7d48a"/>
    </linearGradient>
    <linearGradient id="flame" x1="0" y1="0" x2="0" y2="1">
      <stop offset="0" stop-color="#ffd15f"/>
      <stop offset="1" stop-color="#f97316"/>
    </linearGradient>
  </defs>
  <rect width="320" height="320" fill="none"/>
  <ellipse cx="160" cy="280" rx="95" ry="24" fill="#dbe4ee"/>
  <g transform="translate(160 145) rotate(-18)">
    <path d="M0 -78c26 15 41 42 41 72 0 7-6 13-13 13h-56c-7 0-13-6-13-13 0-30 15-57 41-72z" fill="url(#body)" stroke="#102033" stroke-width="4"/>
    <circle cx="0" cy="-26" r="11" fill="#84b7df" stroke="#102033" stroke-width="4"/>
    <path d="M-26 8l-26 20 12-30z" fill="#03558c"/>
    <path d="M26 8l26 20-12-30z" fill="#03558c"/>
    <path d="M0 7l-10 26h20z" fill="url(#flame)"/>
  </g>
  <g opacity=".88" fill="#f1f5f9">
    <circle cx="103" cy="248" r="22"/>
    <circle cx="130" cy="256" r="18"/>
    <circle cx="156" cy="250" r="24"/>
    <circle cx="186" cy="258" r="19"/>
    <circle cx="214" cy="250" r="22"/>
  </g>
</svg>
